<?xml version="1.0" encoding="UTF-8" standalone="no"?>
<svg width="70px" height="67px" viewBox="0 0 70 67" version="1.1" xmlns="http://www.w3.org/2000/svg" xmlns:xlink="http://www.w3.org/1999/xlink">
    <!-- Generator: Sketch 3.6.1 (26313) - http://www.bohemiancoding.com/sketch -->
    <title>Group 2</title>
    <desc>Created with Sketch.</desc>
    <defs></defs>
    <g id="Page-1" stroke="none" stroke-width="1" fill="none" fill-rule="evenodd">
        <g id="Group-2">
            <path d="M58.2174568,63.996 L1.80545676,63.996 C-1.32154324,59.2 -0.0545432422,49.602 3.07345676,46.406 C4.56445676,44.884 15.7324568,42.004 21.0794568,40.693 C15.4334568,36.308 11.9914568,28.173 11.9914568,20.416 C11.9914568,9.141 15.2664568,9.09494702e-13 30.0044568,9.09494702e-13 C44.7414568,9.09494702e-13 48.0164568,9.141 48.0164568,20.416 C48.0164568,28.15 44.5934568,36.262 38.9764568,40.656 C44.2004568,41.959 55.5374568,44.918 56.9824568,46.406 C60.0854568,49.603 61.3224568,59.2 58.2174568,63.996 L58.2174568,63.996 Z M54.4094568,49.778 C52.3594568,48.679 43.5334568,46.202 36.0094568,44.396 L36.0094568,38.06 C41.0254568,34.646 43.9974568,27.23 43.9974568,20.49 C43.9974568,11.375 41.6654568,3.984 30.0044568,3.984 C18.3434568,3.984 16.0114568,11.375 16.0114568,20.49 C16.0114568,27.236 18.9874568,34.658 24.0094568,38.069 L24.0094568,44.455 C16.4474568,46.234 7.66645676,48.67 5.64745676,49.776 C4.34045676,51.424 3.19845676,56.703 4.00945676,60.004 L56.0094568,60.004 C56.8154568,56.703 55.6974568,51.44 54.4094568,49.778 L54.4094568,49.778 Z" id="Shape" fill="#000000"></path>
            <circle id="Oval-1" fill="#7ED321" cx="58" cy="55" r="12"></circle>
            <g id="Group" transform="translate(50.000000, 48.000000)" stroke="#FFFFFF" fill="#FFFFFF">
                <path d="M8.8349099,5.5310594 C8.69616037,5.67072056 8.47153563,5.67072056 8.33260378,5.5310594 L5.30254005,2.18976643 L5.30254005,10.7410041 C5.30254005,10.9417442 5.13972358,11.1051077 4.93898346,11.1051077 C4.73787868,11.1051077 4.57524453,10.9417442 4.57524453,10.7410041 L4.57524453,2.19013108 L1.54499848,5.5310594 C1.40643128,5.67072056 1.18162421,5.67072056 1.04287468,5.5310594 C0.904125147,5.39194521 0.904125147,5.16713815 1.04287468,5.02765932 L4.64635139,1.0547916 C4.65054487,1.04859254 4.65783788,1.04585766 4.66221369,1.03984093 C4.6716946,1.02762513 4.66786577,1.01048656 4.67916994,0.999182392 C4.69284434,0.985325671 4.71362942,0.989519153 4.72876241,0.978579636 C4.78127209,0.936280173 4.84198641,0.907655105 4.91309327,0.901638371 C4.92075093,0.90127372 4.92658534,0.895986287 4.93406067,0.895986287 C4.93588393,0.895986287 4.9371602,0.894892336 4.93898346,0.894892336 C4.94080671,0.894892336 4.94244764,0.895986287 4.94427089,0.895986287 C4.94882902,0.895986287 4.9522932,0.898538841 4.95703366,0.898903492 C5.04363816,0.903096973 5.12130873,0.937374124 5.18129374,0.992071706 C5.18621653,0.996447513 5.19369186,0.994441935 5.19861464,0.999364717 C5.2033551,1.00392285 5.20134952,1.01176284 5.20572533,1.01668562 C5.21010114,1.0216084 5.20918951,1.02963071 5.21320067,1.03473582 L8.83472758,5.02784164 C8.97347711,5.16713815 8.97347711,5.39194521 8.8349099,5.5310594 L8.8349099,5.5310594 Z" id="Shape"></path>
                <path d="M15.8349099,7.5310594 C15.6961604,7.67072056 15.4715356,7.67072056 15.3326038,7.5310594 L12.3025401,4.18976643 L12.3025401,12.7410041 C12.3025401,12.9417442 12.1397236,13.1051077 11.9389835,13.1051077 C11.7378787,13.1051077 11.5752445,12.9417442 11.5752445,12.7410041 L11.5752445,4.19013108 L8.54499848,7.5310594 C8.40643128,7.67072056 8.18162421,7.67072056 8.04287468,7.5310594 C7.90412515,7.39194521 7.90412515,7.16713815 8.04287468,7.02765932 L11.6463514,3.0547916 C11.6505449,3.04859254 11.6578379,3.04585766 11.6622137,3.03984093 C11.6716946,3.02762513 11.6678658,3.01048656 11.6791699,2.99918239 C11.6928443,2.98532567 11.7136294,2.98951915 11.7287624,2.97857964 C11.7812721,2.93628017 11.8419864,2.9076551 11.9130933,2.90163837 C11.9207509,2.90127372 11.9265853,2.89598629 11.9340607,2.89598629 C11.9358839,2.89598629 11.9371602,2.89489234 11.9389835,2.89489234 C11.9408067,2.89489234 11.9424476,2.89598629 11.9442709,2.89598629 C11.948829,2.89598629 11.9522932,2.89853884 11.9570337,2.89890349 C12.0436382,2.90309697 12.1213087,2.93737412 12.1812937,2.99207171 C12.1862165,2.99644751 12.1936919,2.99444194 12.1986146,2.99936472 C12.2033551,3.00392285 12.2013495,3.01176284 12.2057253,3.01668562 C12.2101011,3.0216084 12.2091895,3.02963071 12.2132007,3.03473582 L15.8347276,7.02784164 C15.9734771,7.16713815 15.9734771,7.39194521 15.8349099,7.5310594 L15.8349099,7.5310594 Z" id="Shape" transform="translate(11.938813, 8.000000) scale(1, -1) translate(-11.938813, -8.000000) "></path>
            </g>
        </g>
    </g>
</svg>